<?xml version="1.0"?>
<svg xmlns="http://www.w3.org/2000/svg" height="512px" viewBox="0 0 512 512" width="512px"><g><path d="m331 196v-45h81.65625c-10.40625-17.847656-29.542969-30-51.65625-30h-120c-33.089844 0-60 26.910156-60 60v90h150v-45h-90v-60h30v30zm0 0" data-original="#000000" class="active-path" data-old_color="#000000" fill="#FFFFFF"/><path d="m0 512h30v-61h452v61h30v-121h-512zm0 0" data-original="#000000" class="active-path" data-old_color="#000000" fill="#FFFFFF"/><path d="m121 346v15h391v-60h-346c-24.851562 0-45 20.148438-45 45zm0 0" data-original="#000000" class="active-path" data-old_color="#000000" fill="#FFFFFF"/><path d="m46 361c24.851562 0 45-20.148438 45-45s-20.148438-45-45-45-46 20.148438-46 45 21.148438 45 46 45zm0 0" data-original="#000000" class="active-path" data-old_color="#000000" fill="#FFFFFF"/><path d="m361 271h60v-30h91v-60h-151zm0 0" data-original="#000000" class="active-path" data-old_color="#000000" fill="#FFFFFF"/><path d="m301 0c-24.851562 0-45 21.148438-45 46s20.148438 45 45 45 45-20.148438 45-45-20.148438-46-45-46zm0 0" data-original="#000000" class="active-path" data-old_color="#000000" fill="#FFFFFF"/></g> </svg>
