<?xml version="1.0"?>
<svg xmlns="http://www.w3.org/2000/svg" height="512px" viewBox="-20 1 511 511.99883" width="512px"><g><path d="m338.566406 62.003906c-6.128906.304688-12.066406-3.183594-14.585937-9.148437l-8.734375-20.6875c-3.21875-7.625.371094-16.40625 8.011718-19.617188 7.640626-3.207031 16.441407.367188 19.660157 7.992188l8.734375 20.6875c3.21875 7.625-.367188 16.40625-8.011719 19.613281-1.65625.699219-3.375 1.074219-5.074219 1.160156zm0 0" data-original="#000000" class="active-path" data-old_color="#000000" fill="#FFFFFF"/><path d="m400.277344 50.722656c-2.203125.109375-4.460938-.261718-6.621094-1.183594-7.628906-3.242187-11.179688-12.035156-7.929688-19.644531l8.871094-20.78125c3.25-7.609375 12.066406-11.152343 19.695313-7.910156 7.628906 3.238281 11.179687 12.035156 7.929687 19.644531l-8.875 20.78125c-2.328125 5.453125-7.511718 8.816406-13.070312 9.09375zm0 0" data-original="#000000" class="active-path" data-old_color="#000000" fill="#FFFFFF"/><path d="m435.796875 100.835938c-6.179687.308593-12.160156-3.246094-14.640625-9.28125-3.144531-7.65625.527344-16.402344 8.199219-19.539063l21.277343-8.703125c7.671876-3.136719 16.441407.523438 19.585938 8.179688 3.144531 7.652343-.523438 16.398437-8.195312 19.535156l-21.28125 8.703125c-1.621094.664062-3.289063 1.019531-4.945313 1.105469zm0 0" data-original="#000000" class="active-path" data-old_color="#000000" fill="#FFFFFF"/><path d="m442.753906 176.007812c-18.703125-49.574218-64.160156-81.734374-115.8125-81.929687-.097656 0-.195312 0-.292968 0-27.128907 0-46.855469 14.320313-64.269532 26.957031-13.230468 9.601563-24.667968 17.90625-36.421875 18.015625-11.75-.109375-23.191406-8.410156-36.417969-18.015625-17.414062-12.640625-37.140624-26.957031-64.269531-26.957031-.097656 0-.195312 0-.292969 0-51.652343.195313-97.113281 32.355469-115.816406 81.929687-21.109375 55.964844.4375 100.292969 21.277344 143.164063 3.164062 6.511719 6.4375 13.25 9.5 19.910156 4.828125 10.5 9.554688 29.351563 14.558594 49.308594 11.761718 46.925781 25.09375 100.113281 54.855468 117.636719 10.152344 5.976562 21.6875 7.503906 33.359376 4.414062 30.867187-8.164062 41.324218-43.214844 50.546874-74.140625 9.777344-32.769531 16.871094-52.730469 32.703126-52.917969 15.828124.1875 22.925781 20.148438 32.699218 52.917969 9.226563 30.925781 19.679688 65.976563 50.546875 74.140625 3.929688 1.039063 7.84375 1.558594 11.695313 1.558594 7.585937 0 14.933594-2.007812 21.664062-5.972656 29.761719-17.527344 43.097656-70.710938 54.859375-117.636719 5-19.957031 9.726563-38.808594 14.554688-49.308594 3.0625-6.664062 6.335937-13.398437 9.503906-19.914062 20.835937-42.867188 42.382813-87.195313 21.269531-143.160157zm-317.433594 7.925782c-14.363281.054687-26.269531 8.925781-31.855468 23.726562-2.265625 6.003906-7.980469 9.703125-14.050782 9.703125-1.757812 0-3.542968-.308593-5.285156-.964843-7.761718-2.914063-11.683594-11.550782-8.765625-19.292969 10-26.496094 32.929688-43.019531 59.84375-43.125h.058594c8.265625 0 14.980469 6.667969 15.011719 14.921875.03125 8.269531-6.664063 15-14.957032 15.03125zm0 0" data-original="#000000" class="active-path" data-old_color="#000000" fill="#FFFFFF"/></g> </svg>
